<svg width="99" height="20" viewBox="0 0 99 20" fill="none" xmlns="http://www.w3.org/2000/svg">
<path d="M19.9536 9.82902V8.23875C19.9534 4.27112 16.7626 1.05478 12.8262 1.05469H9.92112C5.01973 1.05469 1.04637 5.05964 1.04637 10V12.4771C1.04637 16.0491 3.91973 18.9453 7.46358 18.9453H10.9092C12.5498 18.9452 13.8796 17.6047 13.8798 15.9512V11.2133C13.8795 8.88924 12.0103 7.00485 9.70449 7.00484C7.39869 7.00484 5.52947 8.88923 5.52922 11.2133V13.1095C5.52936 14.3875 6.55731 15.4238 7.82531 15.4238C9.09328 15.4238 10.1213 14.3875 10.1214 13.1095V10.6067H11.1678V13.1095C11.1676 14.97 9.67118 16.4785 7.82531 16.4785C5.97942 16.4785 4.48298 14.97 4.48285 13.1095V11.2133C4.4831 8.30675 6.8208 5.95015 9.70449 5.95015C12.5882 5.95016 14.9259 8.30675 14.9261 11.2133V15.3981C17.7463 15.1323 19.9534 12.741 19.9536 9.82902ZM21 9.82902C20.9997 13.335 18.3077 16.2039 14.8934 16.4569C14.6463 18.4542 12.9577 19.9999 10.9092 20H7.46358C3.34184 20 0 16.6316 0 12.4771V10C0 4.47715 4.44184 0 9.92112 0H12.8262C17.3405 8.80607e-05 20.9998 3.68863 21 8.23875V9.82902Z" fill="black"/>
<path d="M24.6641 10.0322C24.6641 6.50913 27.3024 3.84533 30.7919 3.84533C32.8346 3.84533 34.2176 4.55424 35.3878 6.20838V4.1246H36.9623V15.8754H35.3878V13.8131C34.1537 15.4887 32.8984 16.1547 30.9196 16.1547C27.3237 16.1547 24.6641 13.5553 24.6641 10.0322ZM26.2599 9.96778C26.2599 12.6101 28.3238 14.6939 30.8983 14.6939C33.4303 14.6939 35.3878 12.6316 35.3878 9.96778C35.3878 7.30397 33.409 5.30612 30.7707 5.30612C28.2812 5.30612 26.2599 7.3899 26.2599 9.96778Z" fill="black"/>
<path d="M39.6351 15.8754V4.1246H41.2097V5.64984C42.1884 4.44683 43.4012 3.84533 44.9545 3.84533C48.1673 3.84533 49.9334 5.92911 49.9334 9.70999V15.8754H48.3588V9.70999C48.3588 6.80988 47.1248 5.30612 44.763 5.30612C42.4438 5.30612 41.2097 6.72395 41.2097 9.40924V15.8754H39.6351Z" fill="black"/>
<path d="M54.0474 15.8754V5.56391H51.5366V4.1246H54.0474V0H55.6219V4.1246H58.239V5.56391H55.6219V15.8754H54.0474Z" fill="black"/>
<path d="M59.832 15.8754V4.1246H61.4065V15.8754H59.832ZM59.832 2.70677V0H61.4065V2.70677H59.832Z" fill="black"/>
<path d="M73.9004 12.4168H75.6877C74.3473 14.9517 72.5174 16.1547 69.9854 16.1547C66.4108 16.1547 63.6448 13.4694 63.6448 9.96778C63.6448 6.55209 66.3895 3.84533 69.879 3.84533C72.5174 3.84533 74.7302 5.3276 75.6664 7.69066H73.9004C73.0068 6.14393 71.5812 5.30612 69.8577 5.30612C67.2619 5.30612 65.2406 7.36842 65.2406 10.0107C65.2406 12.6316 67.3045 14.6939 69.9216 14.6939C71.5812 14.6939 72.6876 14.0494 73.9004 12.4168Z" fill="black"/>
<path d="M77.8678 15.8754V0H79.4423V15.8754H77.8678Z" fill="black"/>
<path d="M82.1274 15.8754V4.1246H83.702V15.8754H82.1274ZM82.1274 2.70677V0H83.702V2.70677H82.1274Z" fill="black"/>
<path d="M86.3871 20V4.1246H87.9616V6.14393C88.9403 4.64017 90.5361 3.84533 92.5362 3.84533C96.0044 3.84533 98.6641 6.50913 98.6641 10.0107C98.6641 13.4694 95.9831 16.1547 92.4936 16.1547C90.5574 16.1547 88.9829 15.3598 87.9616 13.8561V20H86.3871ZM92.4724 14.6939C95.0895 14.6939 97.0683 12.696 97.0683 10.0537C97.0683 7.28249 95.1108 5.30612 92.4085 5.30612C89.8553 5.30612 87.8552 7.36842 87.8552 10.0107C87.8552 12.6531 89.8553 14.6939 92.4724 14.6939Z" fill="black"/>
</svg>
